<svg width="90" height="90" viewBox="0 0 90 90" xmlns="http://www.w3.org/2000/svg">
  <defs>
    <linearGradient id="armor" x1="0" y1="0" x2="0" y2="1">
      <stop offset="0" stop-color="#d9a45a"/>
      <stop offset="1" stop-color="#8a5a24"/>
    </linearGradient>
  </defs>
  <path d="M28 14 C28 6 38 2 45 2 C52 2 62 6 62 14 L62 26 L28 26 Z" fill="url(#armor)" stroke="#4d3010" stroke-width="2.5"/>
  <path d="M40 2 C40 -2 50 -2 50 2 L52 12 L38 12 Z" fill="#b03a3a" stroke="#4d3010" stroke-width="1.5"/>
  <path d="M45 22 C64 22 76 34 76 52 C76 72 64 86 45 86 C26 86 14 72 14 52 C14 34 26 22 45 22 Z" fill="url(#armor)" stroke="#4d3010" stroke-width="3"/>
  <rect x="30" y="30" width="30" height="8" rx="3" fill="#3a2408"/>
  <circle cx="37" cy="34" r="2.5" fill="#ffd76a"/>
  <circle cx="53" cy="34" r="2.5" fill="#ffd76a"/>
  <circle cx="45" cy="58" r="14" fill="#b98536" stroke="#4d3010" stroke-width="2.5"/>
  <circle cx="45" cy="58" r="6" fill="#8a5a24" stroke="#4d3010" stroke-width="1.5"/>
  <path d="M45 44 L45 72 M31 58 L59 58" stroke="#4d3010" stroke-width="2" opacity="0.6"/>
</svg>
