<svg width="90" height="90" viewBox="0 0 90 90" xmlns="http://www.w3.org/2000/svg">
  <defs>
    <linearGradient id="body" x1="0" y1="0" x2="0" y2="1">
      <stop offset="0" stop-color="#5fc4b8"/>
      <stop offset="1" stop-color="#256b62"/>
    </linearGradient>
  </defs>
  <path d="M6 30 C16 18 26 16 32 22 L24 34 C30 30 36 30 40 34 Z" fill="#bfeee8" stroke="#1a4a44" stroke-width="2"/>
  <path d="M84 30 C74 18 64 16 58 22 L66 34 C60 30 54 30 50 34 Z" fill="#bfeee8" stroke="#1a4a44" stroke-width="2"/>
  <path d="M45 8 C60 8 70 22 70 44 C70 66 62 84 45 84 C28 84 20 66 20 44 C20 22 30 8 45 8 Z" fill="url(#body)" stroke="#1a4a44" stroke-width="3"/>
  <circle cx="36" cy="36" r="6" fill="#ffffff"/>
  <circle cx="54" cy="36" r="6" fill="#ffffff"/>
  <circle cx="37" cy="37.5" r="2.6" fill="#12332f"/>
  <circle cx="53" cy="37.5" r="2.6" fill="#12332f"/>
  <path d="M36 56 Q45 62 54 56" stroke="#12332f" stroke-width="2.5" fill="none" stroke-linecap="round"/>
  <circle cx="45" cy="70" r="5" fill="#bfeee8" opacity="0.8"/>
</svg>
