<svg width="90" height="90" viewBox="0 0 90 90" xmlns="http://www.w3.org/2000/svg">
  <defs>
    <linearGradient id="body" x1="0" y1="0" x2="0" y2="1">
      <stop offset="0" stop-color="#6f8fc4"/>
      <stop offset="1" stop-color="#2f4a7d"/>
    </linearGradient>
  </defs>
  <path d="M45 4 C68 4 84 22 84 46 C84 68 76 84 62 82 C56 81 54 84 45 84 C36 84 34 81 28 82 C14 84 6 68 6 46 C6 22 22 4 45 4 Z" fill="url(#body)" stroke="#1c2f52" stroke-width="3"/>
  <circle cx="30" cy="38" r="8" fill="#ffe98a"/>
  <circle cx="60" cy="38" r="8" fill="#ffe98a"/>
  <circle cx="31.5" cy="40" r="3.5" fill="#1c2f52"/>
  <circle cx="58.5" cy="40" r="3.5" fill="#1c2f52"/>
  <path d="M18 28 L38 32" stroke="#1c2f52" stroke-width="4" stroke-linecap="round"/>
  <path d="M72 28 L52 32" stroke="#1c2f52" stroke-width="4" stroke-linecap="round"/>
  <path d="M45 50 L38 62 L44 62 L39 74 L52 58 L46 58 L51 50 Z" fill="#ffe98a" stroke="#1c2f52" stroke-width="1.5"/>
</svg>
