<svg width="96" height="140" viewBox="0 0 96 140" xmlns="http://www.w3.org/2000/svg">
  <defs>
    <linearGradient id="pillar" x1="0" y1="0" x2="0" y2="1">
      <stop offset="0" stop-color="#f7dc8b"/>
      <stop offset="1" stop-color="#c9962f"/>
    </linearGradient>
    <radialGradient id="glow" cx="0.5" cy="0.45" r="0.6">
      <stop offset="0" stop-color="#fffbe8"/>
      <stop offset="0.7" stop-color="#ffe9a8"/>
      <stop offset="1" stop-color="#f0c860" stop-opacity="0.35"/>
    </radialGradient>
  </defs>
  <path d="M16 134 L16 52 C16 30 30 18 48 18 C66 18 80 30 80 52 L80 134 Z" fill="url(#glow)"/>
  <rect x="4" y="44" width="14" height="88" fill="url(#pillar)" stroke="#8a6420" stroke-width="2"/>
  <rect x="78" y="44" width="14" height="88" fill="url(#pillar)" stroke="#8a6420" stroke-width="2"/>
  <path d="M4 48 C4 20 22 6 48 6 C74 6 92 20 92 48 L80 48 C80 28 66 16 48 16 C30 16 16 28 16 48 Z" fill="url(#pillar)" stroke="#8a6420" stroke-width="2"/>
  <rect x="1" y="130" width="20" height="8" rx="2" fill="#c9962f" stroke="#8a6420" stroke-width="1.5"/>
  <rect x="75" y="130" width="20" height="8" rx="2" fill="#c9962f" stroke="#8a6420" stroke-width="1.5"/>
</svg>
