<svg width="40" height="40" viewBox="0 0 40 40" xmlns="http://www.w3.org/2000/svg">
  <g stroke="#9cd8ff" stroke-width="2.4" stroke-linecap="round">
    <line x1="20" y1="4" x2="20" y2="36"/>
    <line x1="6" y1="12" x2="34" y2="28"/>
    <line x1="34" y1="12" x2="6" y2="28"/>
    <path d="M20 4 L16 8 M20 4 L24 8 M20 36 L16 32 M20 36 L24 32" stroke-width="1.8"/>
    <path d="M6 12 L11 11 M6 12 L7 17 M34 28 L29 29 M34 28 L33 23" stroke-width="1.8"/>
    <path d="M34 12 L29 11 M34 12 L33 17 M6 28 L11 29 M6 28 L7 23" stroke-width="1.8"/>
  </g>
  <circle cx="20" cy="20" r="4" fill="#d8efff" stroke="#9cd8ff" stroke-width="1.5"/>
</svg>
